<?xml version="1.0" encoding="UTF-8" standalone="no"?>
<!DOCTYPE svg PUBLIC "-//W3C//DTD SVG 1.1//EN"
 "http://www.w3.org/Graphics/SVG/1.1/DTD/svg11.dtd">
<!-- Generated by graphviz version 2.40.1 (20161225.0304)
 -->
<!-- Title: G Pages: 1 -->
<svg width="514pt" height="152pt"
 viewBox="0.00 0.00 514.00 152.00" xmlns="http://www.w3.org/2000/svg" xmlns:xlink="http://www.w3.org/1999/xlink">
<g id="graph0" class="graph" transform="scale(1 1) rotate(0) translate(4 148)">
<title>G</title>
<polygon fill="#ffffff" stroke="transparent" points="-4,4 -4,-148 510,-148 510,4 -4,4"/>
<!-- n0 -->
<g id="node1" class="node">
<title>n0</title>
<ellipse fill="#000000" stroke="#000000" cx="225.6" cy="-72" rx="1.8" ry="1.8"/>
</g>
<!-- n1 -->
<g id="node2" class="node">
<title>n1</title>
<g id="a_node2_0"><a xlink:href="#" xlink:title="Foo.bazz">
<polygon fill="none" stroke="#000000" points="271.9,-115 271.9,-136 312.9,-136 312.9,-115 271.9,-115"/>
<text text-anchor="start" x="274.9" y="-121.8" font-family="Times,serif" font-size="14.00" fill="#000000">flag:B</text>
<polygon fill="none" stroke="#000000" points="312.9,-115 312.9,-136 383.9,-136 383.9,-115 312.9,-115"/>
<text text-anchor="start" x="315.9" y="-121.8" font-family="Times,serif" font-size="14.00" fill="#000000">s:16 (1*16)</text>
<polygon fill="none" stroke="#000000" points="383.9,-115 383.9,-136 458.9,-136 458.9,-115 383.9,-115"/>
<text text-anchor="start" x="386.9" y="-121.8" font-family="Times,serif" font-size="14.00" fill="#000000">is:64 (2*32)</text>
</a>
</g>
</g>
<!-- n0&#45;&gt;n1 -->
<g id="edge1" class="edge">
<title>n0&#45;&gt;n1</title>
<path fill="none" stroke="#000000" d="M226,-73.7967C226,-83.1665 226,-126 226,-126 226,-126 253.2227,-126 253.2227,-126"/>
<polygon fill="#000000" stroke="#000000" points="263.2227,-126 253.2227,-130.5001 258.2227,-126 253.2227,-126.0001 253.2227,-126.0001 253.2227,-126.0001 258.2227,-126 253.2226,-121.5001 263.2227,-126 263.2227,-126"/>
<text text-anchor="middle" x="113" y="-102.3097" font-family="Times,serif" font-size="14.00" fill="#000000">_1.u16[0002].u32[00000003.00000005]</text>
</g>
<!-- n2 -->
<g id="node3" class="node">
<title>n2</title>
<g id="a_node3_1"><a xlink:href="#" xlink:title="Foo.baz">
<polygon fill="none" stroke="#000000" points="274.9,-61 274.9,-82 315.9,-82 315.9,-61 274.9,-61"/>
<text text-anchor="start" x="277.9" y="-67.8" font-family="Times,serif" font-size="14.00" fill="#000000">flag:B</text>
<polygon fill="none" stroke="#000000" points="315.9,-61 315.9,-82 386.9,-82 386.9,-61 315.9,-61"/>
<text text-anchor="start" x="318.9" y="-67.8" font-family="Times,serif" font-size="14.00" fill="#000000">bs:16 (2*8)</text>
<polygon fill="none" stroke="#000000" points="386.9,-61 386.9,-82 455.9,-82 455.9,-61 386.9,-61"/>
<text text-anchor="start" x="389.9" y="-67.8" font-family="Times,serif" font-size="14.00" fill="#000000">l:64 (1*64)</text>
</a>
</g>
</g>
<!-- n0&#45;&gt;n2 -->
<g id="edge2" class="edge">
<title>n0&#45;&gt;n2</title>
<path fill="none" stroke="#000000" d="M227.5692,-72C227.5692,-72 256.2248,-72 256.2248,-72"/>
<polygon fill="#000000" stroke="#000000" points="266.2248,-72 256.2248,-76.5001 261.2248,-72 256.2248,-72.0001 256.2248,-72.0001 256.2248,-72.0001 261.2248,-72 256.2247,-67.5001 266.2248,-72 266.2248,-72"/>
<text text-anchor="middle" x="132.397" y="-75.8" font-family="Times,serif" font-size="14.00" fill="#000000">_1.u8[01.00].u64[0000000000000007]</text>
</g>
<!-- n3 -->
<g id="node4" class="node">
<title>n3</title>
<g id="a_node4_2"><a xlink:href="#" xlink:title="Foo.bazzz">
<polygon fill="none" stroke="#000000" points="313.9,-7 313.9,-28 354.9,-28 354.9,-7 313.9,-7"/>
<text text-anchor="start" x="316.9" y="-13.8" font-family="Times,serif" font-size="14.00" fill="#000000">flag:B</text>
<polygon fill="none" stroke="#000000" points="354.9,-7 354.9,-28 385.9,-28 385.9,-7 354.9,-7"/>
<text text-anchor="start" x="357.9" y="-13.8" font-family="Times,serif" font-size="14.00" fill="#000000">b1:8</text>
<polygon fill="none" stroke="#000000" points="385.9,-7 385.9,-28 416.9,-28 416.9,-7 385.9,-7"/>
<text text-anchor="start" x="388.9" y="-13.8" font-family="Times,serif" font-size="14.00" fill="#000000">b2:8</text>
</a>
</g>
</g>
<!-- n0&#45;&gt;n3 -->
<g id="edge3" class="edge">
<title>n0&#45;&gt;n3</title>
<path fill="none" stroke="#000000" d="M226,-70.2033C226,-60.8335 226,-18 226,-18 226,-18 295.1878,-18 295.1878,-18"/>
<polygon fill="#000000" stroke="#000000" points="305.1878,-18 295.1878,-22.5001 300.1878,-18 295.1878,-18.0001 295.1878,-18.0001 295.1878,-18.0001 300.1878,-18 295.1877,-13.5001 305.1878,-18 305.1878,-18"/>
<text text-anchor="middle" x="148.4922" y="-6.8" font-family="Times,serif" font-size="14.00" fill="#000000">!(T).(u8&quot;3&quot; | u8&quot;5&quot;).u8(10..15)</text>
</g>
<!-- n4 -->
<g id="node5" class="node">
<title>n4</title>
<ellipse fill="#000000" stroke="#000000" cx="504.2" cy="-72" rx="1.8" ry="1.8"/>
</g>
<!-- n1&#45;&gt;n4 -->
<g id="edge4" class="edge">
<title>n1&#45;&gt;n4</title>
<path fill="none" stroke="#000000" d="M466.7171,-126C488.4452,-126 505,-126 505,-126 505,-126 505,-83.1665 505,-73.7967"/>
</g>
<!-- n2&#45;&gt;n4 -->
<g id="edge5" class="edge">
<title>n2&#45;&gt;n4</title>
<path fill="none" stroke="#000000" d="M463.5342,-72C481.7589,-72 496.7612,-72 502.1039,-72"/>
</g>
<!-- n3&#45;&gt;n4 -->
<g id="edge6" class="edge">
<title>n3&#45;&gt;n4</title>
<path fill="none" stroke="#000000" d="M424.7214,-18C462.8002,-18 505,-18 505,-18 505,-18 505,-60.8335 505,-70.2033"/>
</g>
</g>
</svg>
