<?xml version="1.0" encoding="UTF-8" standalone="no"?>
<!DOCTYPE svg PUBLIC "-//W3C//DTD SVG 1.1//EN"
 "http://www.w3.org/Graphics/SVG/1.1/DTD/svg11.dtd">
<!-- Generated by graphviz version 2.40.1 (20161225.0304)
 -->
<!-- Title: G Pages: 1 -->
<svg width="212pt" height="98pt"
 viewBox="0.00 0.00 212.20 98.00" xmlns="http://www.w3.org/2000/svg" xmlns:xlink="http://www.w3.org/1999/xlink">
<g id="graph0" class="graph" transform="scale(1 1) rotate(0) translate(4 94)">
<title>G</title>
<polygon fill="#ffffff" stroke="transparent" points="-4,4 -4,-94 208.2,-94 208.2,4 -4,4"/>
<!-- n0 -->
<g id="node1" class="node">
<title>n0</title>
<ellipse fill="#000000" stroke="#000000" cx="1.8" cy="-45" rx="1.8" ry="1.8"/>
</g>
<!-- n1 -->
<g id="node2" class="node">
<title>n1</title>
<g id="a_node2_0"><a xlink:href="#" xlink:title="Foo.bazz">
<polygon fill="none" stroke="#000000" points="60.1,-61 60.1,-82 101.1,-82 101.1,-61 60.1,-61"/>
<text text-anchor="start" x="63.1" y="-67.8" font-family="Times,serif" font-size="14.00" fill="#000000">flag:B</text>
<polygon fill="none" stroke="#000000" points="101.1,-61 101.1,-82 144.1,-82 144.1,-61 101.1,-61"/>
<text text-anchor="start" x="104.1" y="-67.8" font-family="Times,serif" font-size="14.00" fill="#000000">bazz:4</text>
</a>
</g>
</g>
<!-- n0&#45;&gt;n1 -->
<g id="edge1" class="edge">
<title>n0&#45;&gt;n1</title>
<path fill="none" stroke="#000000" d="M2.2,-46.7715C2.2,-52.7783 2.2,-72 2.2,-72 2.2,-72 41.8573,-72 41.8573,-72"/>
<polygon fill="#000000" stroke="#000000" points="51.8573,-72 41.8574,-76.5001 46.8573,-72 41.8573,-72.0001 41.8573,-72.0001 41.8573,-72.0001 46.8573,-72 41.8573,-67.5001 51.8573,-72 51.8573,-72"/>
<text text-anchor="middle" x="5.4144" y="-60.8" font-family="Times,serif" font-size="14.00" fill="#000000">F</text>
</g>
<!-- n2 -->
<g id="node3" class="node">
<title>n2</title>
<g id="a_node3_1"><a xlink:href="#" xlink:title="Foo.baz">
<polygon fill="none" stroke="#000000" points="48.1,-7 48.1,-28 89.1,-28 89.1,-7 48.1,-7"/>
<text text-anchor="start" x="51.1" y="-13.8" font-family="Times,serif" font-size="14.00" fill="#000000">flag:B</text>
<polygon fill="none" stroke="#000000" points="89.1,-7 89.1,-28 123.1,-28 123.1,-7 89.1,-7"/>
<text text-anchor="start" x="92.1" y="-13.8" font-family="Times,serif" font-size="14.00" fill="#000000">b1:B</text>
<polygon fill="none" stroke="#000000" points="123.1,-7 123.1,-28 157.1,-28 157.1,-7 123.1,-7"/>
<text text-anchor="start" x="126.1" y="-13.8" font-family="Times,serif" font-size="14.00" fill="#000000">b2:B</text>
</a>
</g>
</g>
<!-- n0&#45;&gt;n2 -->
<g id="edge2" class="edge">
<title>n0&#45;&gt;n2</title>
<path fill="none" stroke="#000000" d="M3.7078,-45.6C12.2063,-45.6 46.2,-45.6 46.2,-45.6 46.2,-45.6 46.2,-44.6656 46.2,-44.6656"/>
<polygon fill="#000000" stroke="#000000" points="46.2,-36.2559 50.7001,-46.2558 46.2001,-41.2559 46.2001,-46.2559 46.2001,-46.2559 46.2001,-46.2559 46.2001,-41.2559 41.7001,-46.256 46.2,-36.2559 46.2,-36.2559"/>
<text text-anchor="middle" x="20.9211" y="-34.4" font-family="Times,serif" font-size="14.00" fill="#000000">T</text>
</g>
<!-- n3 -->
<g id="node4" class="node">
<title>n3</title>
<ellipse fill="#000000" stroke="#000000" cx="202.4" cy="-45" rx="1.8" ry="1.8"/>
</g>
<!-- n1&#45;&gt;n3 -->
<g id="edge3" class="edge">
<title>n1&#45;&gt;n3</title>
<path fill="none" stroke="#000000" d="M152.3538,-72C177.7272,-72 203.2,-72 203.2,-72 203.2,-72 203.2,-52.7783 203.2,-46.7715"/>
</g>
<!-- n2&#45;&gt;n3 -->
<g id="edge4" class="edge">
<title>n2&#45;&gt;n3</title>
<path fill="none" stroke="#000000" d="M159.2,-36.0469C159.2,-40.6875 159.2,-44.4 159.2,-44.4 159.2,-44.4 192.275,-44.4 200.5438,-44.4"/>
</g>
</g>
</svg>
