<?xml version="1.0" encoding="UTF-8" standalone="no"?>
<!DOCTYPE svg PUBLIC "-//W3C//DTD SVG 1.1//EN"
 "http://www.w3.org/Graphics/SVG/1.1/DTD/svg11.dtd">
<!-- Generated by graphviz version 2.40.1 (20161225.0304)
 -->
<!-- Title: G Pages: 1 -->
<svg width="2325pt" height="144pt"
 viewBox="0.00 0.00 2325.00 144.00" xmlns="http://www.w3.org/2000/svg" xmlns:xlink="http://www.w3.org/1999/xlink">
<g id="graph0" class="graph" transform="scale(1 1) rotate(0) translate(4 140)">
<title>G</title>
<polygon fill="#ffffff" stroke="transparent" points="-4,4 -4,-140 2321,-140 2321,4 -4,4"/>
<!-- n0 -->
<g id="node1" class="node">
<title>n0</title>
<ellipse fill="#000000" stroke="#000000" cx="92.6" cy="-72" rx="1.8" ry="1.8"/>
</g>
<!-- n1 -->
<g id="node2" class="node">
<title>n1</title>
<g id="a_node2_0"><a xlink:href="#" xlink:title="cts.frameControl">
<polygon fill="none" stroke="#000000" points="138.9,-107 138.9,-128 202.9,-128 202.9,-107 138.9,-107"/>
<text text-anchor="start" x="141.9" y="-113.8" font-family="Times,serif" font-size="14.00" fill="#000000">protocol:2</text>
<polygon fill="none" stroke="#000000" points="202.9,-107 202.9,-128 236.9,-128 236.9,-107 202.9,-107"/>
<text text-anchor="start" x="205.9" y="-113.8" font-family="Times,serif" font-size="14.00" fill="#000000">tpe:2</text>
<polygon fill="none" stroke="#000000" points="236.9,-107 236.9,-128 302.9,-128 302.9,-107 236.9,-107"/>
<text text-anchor="start" x="239.9" y="-113.8" font-family="Times,serif" font-size="14.00" fill="#000000">subType:4</text>
<polygon fill="none" stroke="#000000" points="302.9,-107 302.9,-128 348.9,-128 348.9,-107 302.9,-107"/>
<text text-anchor="start" x="305.9" y="-113.8" font-family="Times,serif" font-size="14.00" fill="#000000">toDS:1</text>
<polygon fill="none" stroke="#000000" points="348.9,-107 348.9,-128 411.9,-128 411.9,-107 348.9,-107"/>
<text text-anchor="start" x="351.9" y="-113.8" font-family="Times,serif" font-size="14.00" fill="#000000">fromDS:1</text>
<polygon fill="none" stroke="#000000" points="411.9,-107 411.9,-128 483.9,-128 483.9,-107 411.9,-107"/>
<text text-anchor="start" x="414.9" y="-113.8" font-family="Times,serif" font-size="14.00" fill="#000000">moreFrag:1</text>
<polygon fill="none" stroke="#000000" points="483.9,-107 483.9,-128 527.9,-128 527.9,-107 483.9,-107"/>
<text text-anchor="start" x="486.9" y="-113.8" font-family="Times,serif" font-size="14.00" fill="#000000">retry:1</text>
<polygon fill="none" stroke="#000000" points="527.9,-107 527.9,-128 614.9,-128 614.9,-107 527.9,-107"/>
<text text-anchor="start" x="530.9" y="-113.8" font-family="Times,serif" font-size="14.00" fill="#000000">powerMgmt:1</text>
<polygon fill="none" stroke="#000000" points="614.9,-107 614.9,-128 687.9,-128 687.9,-107 614.9,-107"/>
<text text-anchor="start" x="617.9" y="-113.8" font-family="Times,serif" font-size="14.00" fill="#000000">moreData:1</text>
<polygon fill="none" stroke="#000000" points="687.9,-107 687.9,-128 728.9,-128 728.9,-107 687.9,-107"/>
<text text-anchor="start" x="690.9" y="-113.8" font-family="Times,serif" font-size="14.00" fill="#000000">wep:1</text>
<polygon fill="none" stroke="#000000" points="728.9,-107 728.9,-128 775.9,-128 775.9,-107 728.9,-107"/>
<text text-anchor="start" x="731.9" y="-113.8" font-family="Times,serif" font-size="14.00" fill="#000000">order:1</text>
</a>
</g>
</g>
<!-- n0&#45;&gt;n1 -->
<g id="edge1" class="edge">
<title>n0&#45;&gt;n1</title>
<path fill="none" stroke="#000000" d="M93,-73.9766C93,-82.7813 93,-118 93,-118 93,-118 120.2335,-118 120.2335,-118"/>
<polygon fill="#000000" stroke="#000000" points="130.2335,-118 120.2336,-122.5001 125.2335,-118 120.2335,-118.0001 120.2335,-118.0001 120.2335,-118.0001 125.2335,-118 120.2335,-113.5001 130.2335,-118 130.2335,-118"/>
<text text-anchor="middle" x="46.5" y="-98.4051" font-family="Times,serif" font-size="14.00" fill="#000000">_2.u2&quot;1&quot;.u4&quot;12&quot;</text>
</g>
<!-- n2 -->
<g id="node3" class="node">
<title>n2</title>
<g id="a_node3_1"><a xlink:href="#" xlink:title="rts.frameControl">
<polygon fill="none" stroke="#000000" points="827.9,-61 827.9,-82 891.9,-82 891.9,-61 827.9,-61"/>
<text text-anchor="start" x="830.9" y="-67.8" font-family="Times,serif" font-size="14.00" fill="#000000">protocol:2</text>
<polygon fill="none" stroke="#000000" points="891.9,-61 891.9,-82 925.9,-82 925.9,-61 891.9,-61"/>
<text text-anchor="start" x="894.9" y="-67.8" font-family="Times,serif" font-size="14.00" fill="#000000">tpe:2</text>
<polygon fill="none" stroke="#000000" points="925.9,-61 925.9,-82 991.9,-82 991.9,-61 925.9,-61"/>
<text text-anchor="start" x="928.9" y="-67.8" font-family="Times,serif" font-size="14.00" fill="#000000">subType:4</text>
<polygon fill="none" stroke="#000000" points="991.9,-61 991.9,-82 1037.9,-82 1037.9,-61 991.9,-61"/>
<text text-anchor="start" x="994.9" y="-67.8" font-family="Times,serif" font-size="14.00" fill="#000000">toDS:1</text>
<polygon fill="none" stroke="#000000" points="1037.9,-61 1037.9,-82 1100.9,-82 1100.9,-61 1037.9,-61"/>
<text text-anchor="start" x="1040.9" y="-67.8" font-family="Times,serif" font-size="14.00" fill="#000000">fromDS:1</text>
<polygon fill="none" stroke="#000000" points="1100.9,-61 1100.9,-82 1172.9,-82 1172.9,-61 1100.9,-61"/>
<text text-anchor="start" x="1103.9" y="-67.8" font-family="Times,serif" font-size="14.00" fill="#000000">moreFrag:1</text>
<polygon fill="none" stroke="#000000" points="1172.9,-61 1172.9,-82 1216.9,-82 1216.9,-61 1172.9,-61"/>
<text text-anchor="start" x="1175.9" y="-67.8" font-family="Times,serif" font-size="14.00" fill="#000000">retry:1</text>
<polygon fill="none" stroke="#000000" points="1216.9,-61 1216.9,-82 1303.9,-82 1303.9,-61 1216.9,-61"/>
<text text-anchor="start" x="1219.9" y="-67.8" font-family="Times,serif" font-size="14.00" fill="#000000">powerMgmt:1</text>
<polygon fill="none" stroke="#000000" points="1303.9,-61 1303.9,-82 1376.9,-82 1376.9,-61 1303.9,-61"/>
<text text-anchor="start" x="1306.9" y="-67.8" font-family="Times,serif" font-size="14.00" fill="#000000">moreData:1</text>
<polygon fill="none" stroke="#000000" points="1376.9,-61 1376.9,-82 1417.9,-82 1417.9,-61 1376.9,-61"/>
<text text-anchor="start" x="1379.9" y="-67.8" font-family="Times,serif" font-size="14.00" fill="#000000">wep:1</text>
<polygon fill="none" stroke="#000000" points="1417.9,-61 1417.9,-82 1464.9,-82 1464.9,-61 1417.9,-61"/>
<text text-anchor="start" x="1420.9" y="-67.8" font-family="Times,serif" font-size="14.00" fill="#000000">order:1</text>
</a>
</g>
</g>
<!-- n0&#45;&gt;n2 -->
<g id="edge2" class="edge">
<title>n0&#45;&gt;n2</title>
<path fill="none" stroke="#000000" d="M94.6027,-72C94.6027,-72 809.3149,-72 809.3149,-72"/>
<polygon fill="#000000" stroke="#000000" points="819.3149,-72 809.315,-76.5001 814.3149,-72 809.3149,-72.0001 809.3149,-72.0001 809.3149,-72.0001 814.3149,-72 809.3149,-67.5001 819.3149,-72 819.3149,-72"/>
<text text-anchor="middle" x="405.4588" y="-60.8" font-family="Times,serif" font-size="14.00" fill="#000000">_2.u2&quot;1&quot;.u4&quot;11&quot;</text>
</g>
<!-- n3 -->
<g id="node4" class="node">
<title>n3</title>
<g id="a_node4_2"><a xlink:href="#" xlink:title="data.frameControl">
<polygon fill="none" stroke="#000000" points="138.9,-11 138.9,-32 202.9,-32 202.9,-11 138.9,-11"/>
<text text-anchor="start" x="141.9" y="-17.8" font-family="Times,serif" font-size="14.00" fill="#000000">protocol:2</text>
<polygon fill="none" stroke="#000000" points="202.9,-11 202.9,-32 236.9,-32 236.9,-11 202.9,-11"/>
<text text-anchor="start" x="205.9" y="-17.8" font-family="Times,serif" font-size="14.00" fill="#000000">tpe:2</text>
<polygon fill="none" stroke="#000000" points="236.9,-11 236.9,-32 302.9,-32 302.9,-11 236.9,-11"/>
<text text-anchor="start" x="239.9" y="-17.8" font-family="Times,serif" font-size="14.00" fill="#000000">subType:4</text>
<polygon fill="none" stroke="#000000" points="302.9,-11 302.9,-32 348.9,-32 348.9,-11 302.9,-11"/>
<text text-anchor="start" x="305.9" y="-17.8" font-family="Times,serif" font-size="14.00" fill="#000000">toDS:1</text>
<polygon fill="none" stroke="#000000" points="348.9,-11 348.9,-32 411.9,-32 411.9,-11 348.9,-11"/>
<text text-anchor="start" x="351.9" y="-17.8" font-family="Times,serif" font-size="14.00" fill="#000000">fromDS:1</text>
<polygon fill="none" stroke="#000000" points="411.9,-11 411.9,-32 483.9,-32 483.9,-11 411.9,-11"/>
<text text-anchor="start" x="414.9" y="-17.8" font-family="Times,serif" font-size="14.00" fill="#000000">moreFrag:1</text>
<polygon fill="none" stroke="#000000" points="483.9,-11 483.9,-32 527.9,-32 527.9,-11 483.9,-11"/>
<text text-anchor="start" x="486.9" y="-17.8" font-family="Times,serif" font-size="14.00" fill="#000000">retry:1</text>
<polygon fill="none" stroke="#000000" points="527.9,-11 527.9,-32 614.9,-32 614.9,-11 527.9,-11"/>
<text text-anchor="start" x="530.9" y="-17.8" font-family="Times,serif" font-size="14.00" fill="#000000">powerMgmt:1</text>
<polygon fill="none" stroke="#000000" points="614.9,-11 614.9,-32 687.9,-32 687.9,-11 614.9,-11"/>
<text text-anchor="start" x="617.9" y="-17.8" font-family="Times,serif" font-size="14.00" fill="#000000">moreData:1</text>
<polygon fill="none" stroke="#000000" points="687.9,-11 687.9,-32 728.9,-32 728.9,-11 687.9,-11"/>
<text text-anchor="start" x="690.9" y="-17.8" font-family="Times,serif" font-size="14.00" fill="#000000">wep:1</text>
<polygon fill="none" stroke="#000000" points="728.9,-11 728.9,-32 775.9,-32 775.9,-11 728.9,-11"/>
<text text-anchor="start" x="731.9" y="-17.8" font-family="Times,serif" font-size="14.00" fill="#000000">order:1</text>
</a>
</g>
</g>
<!-- n0&#45;&gt;n3 -->
<g id="edge3" class="edge">
<title>n0&#45;&gt;n3</title>
<path fill="none" stroke="#000000" d="M93,-69.8516C93,-60.2813 93,-22 93,-22 93,-22 120.2335,-22 120.2335,-22"/>
<polygon fill="#000000" stroke="#000000" points="130.2335,-22 120.2336,-26.5001 125.2335,-22 120.2335,-22.0001 120.2335,-22.0001 120.2335,-22.0001 125.2335,-22 120.2335,-17.5001 130.2335,-22 130.2335,-22"/>
<text text-anchor="middle" x="68" y="-21.109" font-family="Times,serif" font-size="14.00" fill="#000000">_2.u2&quot;2&quot;</text>
</g>
<!-- n6 -->
<g id="node7" class="node">
<title>n6</title>
<g id="a_node7_3"><a xlink:href="#" xlink:title="cts">
<polygon fill="none" stroke="#000000" points="1516.9,-107 1516.9,-128 1621.9,-128 1621.9,-107 1516.9,-107"/>
<text text-anchor="start" x="1519.9" y="-113.8" font-family="Times,serif" font-size="14.00" fill="#000000">duration:16 (2*8)</text>
<polygon fill="none" stroke="#000000" points="1621.9,-107 1621.9,-128 1724.9,-128 1724.9,-107 1621.9,-107"/>
<text text-anchor="start" x="1624.9" y="-113.8" font-family="Times,serif" font-size="14.00" fill="#000000">receiver:48 (6*8)</text>
<polygon fill="none" stroke="#000000" points="1724.9,-107 1724.9,-128 1765.9,-128 1765.9,-107 1724.9,-107"/>
<text text-anchor="start" x="1727.9" y="-113.8" font-family="Times,serif" font-size="14.00" fill="#000000">fcs:32</text>
</a>
</g>
</g>
<!-- n1&#45;&gt;n6 -->
<g id="edge7" class="edge">
<title>n1&#45;&gt;n6</title>
<path fill="none" stroke="#000000" d="M783.5674,-118C783.5674,-118 1498.1826,-118 1498.1826,-118"/>
<polygon fill="#000000" stroke="#000000" points="1508.1826,-118 1498.1827,-122.5001 1503.1826,-118 1498.1826,-118.0001 1498.1826,-118.0001 1498.1826,-118.0001 1503.1826,-118 1498.1826,-113.5001 1508.1826,-118 1508.1826,-118"/>
</g>
<!-- n5 -->
<g id="node6" class="node">
<title>n5</title>
<g id="a_node6_4"><a xlink:href="#" xlink:title="rts">
<polygon fill="none" stroke="#000000" points="1859.4,-61 1859.4,-82 1964.4,-82 1964.4,-61 1859.4,-61"/>
<text text-anchor="start" x="1862.4" y="-67.8" font-family="Times,serif" font-size="14.00" fill="#000000">duration:16 (2*8)</text>
<polygon fill="none" stroke="#000000" points="1964.4,-61 1964.4,-82 2067.4,-82 2067.4,-61 1964.4,-61"/>
<text text-anchor="start" x="1967.4" y="-67.8" font-family="Times,serif" font-size="14.00" fill="#000000">receiver:48 (6*8)</text>
<polygon fill="none" stroke="#000000" points="2067.4,-61 2067.4,-82 2186.4,-82 2186.4,-61 2067.4,-61"/>
<text text-anchor="start" x="2070.4" y="-67.8" font-family="Times,serif" font-size="14.00" fill="#000000">transmitter:48 (6*8)</text>
<polygon fill="none" stroke="#000000" points="2186.4,-61 2186.4,-82 2227.4,-82 2227.4,-61 2186.4,-61"/>
<text text-anchor="start" x="2189.4" y="-67.8" font-family="Times,serif" font-size="14.00" fill="#000000">fcs:32</text>
</a>
</g>
</g>
<!-- n2&#45;&gt;n5 -->
<g id="edge8" class="edge">
<title>n2&#45;&gt;n5</title>
<path fill="none" stroke="#000000" d="M1472.457,-72C1472.457,-72 1841.2349,-72 1841.2349,-72"/>
<polygon fill="#000000" stroke="#000000" points="1851.2349,-72 1841.2349,-76.5001 1846.2349,-72 1841.2349,-72.0001 1841.2349,-72.0001 1841.2349,-72.0001 1846.2349,-72 1841.2348,-67.5001 1851.2349,-72 1851.2349,-72"/>
</g>
<!-- n8 -->
<g id="node9" class="node">
<title>n8</title>
<g id="a_node9_5"><a xlink:href="#" xlink:title="data">
<polygon fill="none" stroke="#000000" points="932.9,-7 932.9,-28 1037.9,-28 1037.9,-7 932.9,-7"/>
<text text-anchor="start" x="935.9" y="-13.8" font-family="Times,serif" font-size="14.00" fill="#000000">duration:16 (2*8)</text>
<polygon fill="none" stroke="#000000" points="1037.9,-7 1037.9,-28 1144.9,-28 1144.9,-7 1037.9,-7"/>
<text text-anchor="start" x="1040.9" y="-13.8" font-family="Times,serif" font-size="14.00" fill="#000000">address1:48 (6*8)</text>
<polygon fill="none" stroke="#000000" points="1144.9,-7 1144.9,-28 1251.9,-28 1251.9,-7 1144.9,-7"/>
<text text-anchor="start" x="1147.9" y="-13.8" font-family="Times,serif" font-size="14.00" fill="#000000">address2:48 (6*8)</text>
<polygon fill="none" stroke="#000000" points="1251.9,-7 1251.9,-28 1358.9,-28 1358.9,-7 1251.9,-7"/>
<text text-anchor="start" x="1254.9" y="-13.8" font-family="Times,serif" font-size="14.00" fill="#000000">address3:48 (6*8)</text>
</a>
</g>
</g>
<!-- n3&#45;&gt;n8 -->
<g id="edge9" class="edge">
<title>n3&#45;&gt;n8</title>
<path fill="none" stroke="#000000" d="M783.4925,-20C783.4925,-20 914.5944,-20 914.5944,-20"/>
<polygon fill="#000000" stroke="#000000" points="924.5944,-20 914.5945,-24.5001 919.5944,-20 914.5944,-20.0001 914.5944,-20.0001 914.5944,-20.0001 919.5944,-20 914.5944,-15.5001 924.5944,-20 924.5944,-20"/>
</g>
<!-- n4 -->
<g id="node5" class="node">
<title>n4</title>
<ellipse fill="#000000" stroke="#000000" cx="2315.2" cy="-72" rx="1.8" ry="1.8"/>
</g>
<!-- n5&#45;&gt;n4 -->
<g id="edge6" class="edge">
<title>n5&#45;&gt;n4</title>
<path fill="none" stroke="#000000" d="M2235.4875,-72C2273.9875,-72 2305.1853,-72 2313.1984,-72"/>
</g>
<!-- n6&#45;&gt;n4 -->
<g id="edge4" class="edge">
<title>n6&#45;&gt;n4</title>
<path fill="none" stroke="#000000" d="M1773.4725,-118C1970.0796,-118 2316,-118 2316,-118 2316,-118 2316,-82.7813 2316,-73.9766"/>
</g>
<!-- n7 -->
<g id="node8" class="node">
<title>n7</title>
<g id="a_node8_6"><a xlink:href="#" xlink:title="data">
<polygon fill="none" stroke="#000000" points="1817.4,-7 1817.4,-28 1924.4,-28 1924.4,-7 1817.4,-7"/>
<text text-anchor="start" x="1820.4" y="-13.8" font-family="Times,serif" font-size="14.00" fill="#000000">address4:48 (6*8)</text>
<polygon fill="none" stroke="#000000" points="1924.4,-7 1924.4,-28 2228.4,-28 2228.4,-7 1924.4,-7"/>
<text text-anchor="start" x="1927.4" y="-13.8" font-family="Times,serif" font-size="14.00" fill="#000000">body:&lt;...(frameControl.tpe, frameControl.subType)&gt;</text>
<polygon fill="none" stroke="#000000" points="2228.4,-7 2228.4,-28 2269.4,-28 2269.4,-7 2228.4,-7"/>
<text text-anchor="start" x="2231.4" y="-13.8" font-family="Times,serif" font-size="14.00" fill="#000000">fcs:32</text>
</a>
</g>
</g>
<!-- n7&#45;&gt;n4 -->
<g id="edge5" class="edge">
<title>n7&#45;&gt;n4</title>
<path fill="none" stroke="#000000" d="M2277.5212,-18C2300.775,-18 2316,-18 2316,-18 2316,-18 2316,-60.8335 2316,-70.2033"/>
</g>
<!-- n9 -->
<g id="node10" class="node">
<title>n9</title>
<g id="a_node10_7"><a xlink:href="#" xlink:title="data.seqControl">
<polygon fill="none" stroke="#000000" points="1553.9,-7 1553.9,-28 1639.9,-28 1639.9,-7 1553.9,-7"/>
<text text-anchor="start" x="1556.9" y="-13.8" font-family="Times,serif" font-size="14.00" fill="#000000">fragNumber:4</text>
<polygon fill="none" stroke="#000000" points="1639.9,-7 1639.9,-28 1728.9,-28 1728.9,-7 1639.9,-7"/>
<text text-anchor="start" x="1642.9" y="-13.8" font-family="Times,serif" font-size="14.00" fill="#000000">seqNumber:12</text>
</a>
</g>
</g>
<!-- n8&#45;&gt;n9 -->
<g id="edge10" class="edge">
<title>n8&#45;&gt;n9</title>
<path fill="none" stroke="#000000" d="M1366.9788,-18C1366.9788,-18 1535.3554,-18 1535.3554,-18"/>
<polygon fill="#000000" stroke="#000000" points="1545.3554,-18 1535.3554,-22.5001 1540.3554,-18 1535.3554,-18.0001 1535.3554,-18.0001 1535.3554,-18.0001 1540.3554,-18 1535.3553,-13.5001 1545.3554,-18 1545.3554,-18"/>
</g>
<!-- n9&#45;&gt;n7 -->
<g id="edge11" class="edge">
<title>n9&#45;&gt;n7</title>
<path fill="none" stroke="#000000" d="M1736.542,-18C1736.542,-18 1799.0638,-18 1799.0638,-18"/>
<polygon fill="#000000" stroke="#000000" points="1809.0638,-18 1799.0639,-22.5001 1804.0638,-18 1799.0638,-18.0001 1799.0638,-18.0001 1799.0638,-18.0001 1804.0638,-18 1799.0638,-13.5001 1809.0638,-18 1809.0638,-18"/>
</g>
</g>
</svg>
