<?xml version="1.0" encoding="UTF-8" standalone="no"?>
<!DOCTYPE svg PUBLIC "-//W3C//DTD SVG 1.1//EN"
 "http://www.w3.org/Graphics/SVG/1.1/DTD/svg11.dtd">
<!-- Generated by graphviz version 2.40.1 (20161225.0304)
 -->
<!-- Title: G Pages: 1 -->
<svg width="2235pt" height="144pt"
 viewBox="0.00 0.00 2235.20 144.00" xmlns="http://www.w3.org/2000/svg" xmlns:xlink="http://www.w3.org/1999/xlink">
<g id="graph0" class="graph" transform="scale(1 1) rotate(0) translate(4 140)">
<title>G</title>
<polygon fill="#ffffff" stroke="transparent" points="-4,4 -4,-140 2231.2,-140 2231.2,4 -4,4"/>
<!-- n0 -->
<g id="node1" class="node">
<title>n0</title>
<g id="a_node1_0"><a xlink:href="#" xlink:title="MacFrame.macHeader.frameControl">
<polygon fill="none" stroke="#000000" points="8.5,-61 8.5,-82 72.5,-82 72.5,-61 8.5,-61"/>
<text text-anchor="start" x="11.5" y="-67.8" font-family="Times,serif" font-size="14.00" fill="#000000">protocol:2</text>
<polygon fill="none" stroke="#000000" points="72.5,-61 72.5,-82 106.5,-82 106.5,-61 72.5,-61"/>
<text text-anchor="start" x="75.5" y="-67.8" font-family="Times,serif" font-size="14.00" fill="#000000">tpe:2</text>
<polygon fill="none" stroke="#000000" points="106.5,-61 106.5,-82 172.5,-82 172.5,-61 106.5,-61"/>
<text text-anchor="start" x="109.5" y="-67.8" font-family="Times,serif" font-size="14.00" fill="#000000">subType:4</text>
<polygon fill="none" stroke="#000000" points="172.5,-61 172.5,-82 218.5,-82 218.5,-61 172.5,-61"/>
<text text-anchor="start" x="175.5" y="-67.8" font-family="Times,serif" font-size="14.00" fill="#000000">toDS:1</text>
<polygon fill="none" stroke="#000000" points="218.5,-61 218.5,-82 281.5,-82 281.5,-61 218.5,-61"/>
<text text-anchor="start" x="221.5" y="-67.8" font-family="Times,serif" font-size="14.00" fill="#000000">fromDS:1</text>
<polygon fill="none" stroke="#000000" points="281.5,-61 281.5,-82 353.5,-82 353.5,-61 281.5,-61"/>
<text text-anchor="start" x="284.5" y="-67.8" font-family="Times,serif" font-size="14.00" fill="#000000">moreFrag:1</text>
<polygon fill="none" stroke="#000000" points="353.5,-61 353.5,-82 397.5,-82 397.5,-61 353.5,-61"/>
<text text-anchor="start" x="356.5" y="-67.8" font-family="Times,serif" font-size="14.00" fill="#000000">retry:1</text>
<polygon fill="none" stroke="#000000" points="397.5,-61 397.5,-82 484.5,-82 484.5,-61 397.5,-61"/>
<text text-anchor="start" x="400.5" y="-67.8" font-family="Times,serif" font-size="14.00" fill="#000000">powerMgmt:1</text>
<polygon fill="none" stroke="#000000" points="484.5,-61 484.5,-82 557.5,-82 557.5,-61 484.5,-61"/>
<text text-anchor="start" x="487.5" y="-67.8" font-family="Times,serif" font-size="14.00" fill="#000000">moreData:1</text>
<polygon fill="none" stroke="#000000" points="557.5,-61 557.5,-82 598.5,-82 598.5,-61 557.5,-61"/>
<text text-anchor="start" x="560.5" y="-67.8" font-family="Times,serif" font-size="14.00" fill="#000000">wep:1</text>
<polygon fill="none" stroke="#000000" points="598.5,-61 598.5,-82 645.5,-82 645.5,-61 598.5,-61"/>
<text text-anchor="start" x="601.5" y="-67.8" font-family="Times,serif" font-size="14.00" fill="#000000">order:1</text>
</a>
</g>
</g>
<!-- n1 -->
<g id="node2" class="node">
<title>n1</title>
<g id="a_node2_1"><a xlink:href="#" xlink:title="MacFrame.macHeader">
<polygon fill="none" stroke="#000000" points="697.5,-61 697.5,-82 802.5,-82 802.5,-61 697.5,-61"/>
<text text-anchor="start" x="700.5" y="-67.8" font-family="Times,serif" font-size="14.00" fill="#000000">duration:16 (2*8)</text>
</a>
</g>
</g>
<!-- n0&#45;&gt;n1 -->
<g id="edge1" class="edge">
<title>n0&#45;&gt;n1</title>
<path fill="none" stroke="#000000" d="M653.2502,-72C653.2502,-72 678.8158,-72 678.8158,-72"/>
<polygon fill="#000000" stroke="#000000" points="688.8158,-72 678.8158,-76.5001 683.8158,-72 678.8158,-72.0001 678.8158,-72.0001 678.8158,-72.0001 683.8158,-72 678.8157,-67.5001 688.8158,-72 688.8158,-72"/>
</g>
<!-- n7 -->
<g id="node8" class="node">
<title>n7</title>
<ellipse fill="#000000" stroke="#000000" cx="847.8" cy="-72" rx="1.8" ry="1.8"/>
</g>
<!-- n1&#45;&gt;n7 -->
<g id="edge6" class="edge">
<title>n1&#45;&gt;n7</title>
<g id="a_edge6"><a xlink:href="#" xlink:title="p =&gt; p match {&#13; &#160;case /* CTS */ (Frame.Control, u4&quot;0xC&quot;) =&gt; 0&#13; &#160;case /* RTS */ (Frame.Control, u4&quot;0xB&quot;) =&gt; 1&#13; &#160;case /* Data */ (Frame.Data, _) =&gt; 2&#13; &#160;case _ =&gt; &#45;1 // error&#13;}">
<path fill="none" stroke="#000000" d="M810.0758,-72C826.1957,-72 840.5797,-72 845.7582,-72"/>
</a>
</g>
<g id="a_edge6&#45;label"><a xlink:href="#">
<text text-anchor="middle" x="943.417" y="-75.8" font-family="Times,serif" font-size="14.00" fill="#000000">frameControl.tpe, frameControl.subType</text>
</a>
</g>
</g>
<!-- n2 -->
<g id="node3" class="node">
<title>n2</title>
<ellipse fill="#000000" stroke="#000000" cx="1693.4" cy="-72" rx="1.8" ry="1.8"/>
</g>
<!-- n3 -->
<g id="node4" class="node">
<title>n3</title>
<g id="a_node4_2"><a xlink:href="#" xlink:title="MacFrame">
<polygon fill="none" stroke="#000000" points="1739.2,-61 1739.2,-82 2178.2,-82 2178.2,-61 1739.2,-61"/>
<text text-anchor="start" x="1742.2" y="-67.8" font-family="Times,serif" font-size="14.00" fill="#000000">body:&lt;...(macHeader.frameControl.tpe, macHeader.frameControl.subType)&gt;</text>
<polygon fill="none" stroke="#000000" points="2178.2,-61 2178.2,-82 2219.2,-82 2219.2,-61 2178.2,-61"/>
<text text-anchor="start" x="2181.2" y="-67.8" font-family="Times,serif" font-size="14.00" fill="#000000">fcs:32</text>
</a>
</g>
</g>
<!-- n2&#45;&gt;n3 -->
<g id="edge2" class="edge">
<title>n2&#45;&gt;n3</title>
<path fill="none" stroke="#000000" d="M1695.2251,-72C1695.2251,-72 1721.0297,-72 1721.0297,-72"/>
<polygon fill="#000000" stroke="#000000" points="1731.0297,-72 1721.0297,-76.5001 1726.0297,-72 1721.0297,-72.0001 1721.0297,-72.0001 1721.0297,-72.0001 1726.0297,-72 1721.0296,-67.5001 1731.0297,-72 1731.0297,-72"/>
</g>
<!-- n4 -->
<g id="node5" class="node">
<title>n4</title>
<g id="a_node5_3"><a xlink:href="#" xlink:title="MacFrame.macHeader.data">
<polygon fill="none" stroke="#000000" points="1541.1,-7 1541.1,-28 1648.1,-28 1648.1,-7 1541.1,-7"/>
<text text-anchor="start" x="1544.1" y="-13.8" font-family="Times,serif" font-size="14.00" fill="#000000">address4:48 (6*8)</text>
</a>
</g>
</g>
<!-- n4&#45;&gt;n2 -->
<g id="edge3" class="edge">
<title>n4&#45;&gt;n2</title>
<path fill="none" stroke="#000000" d="M1655.785,-18C1676.3844,-18 1694.2,-18 1694.2,-18 1694.2,-18 1694.2,-60.8335 1694.2,-70.2033"/>
</g>
<!-- n5 -->
<g id="node6" class="node">
<title>n5</title>
<g id="a_node6_4"><a xlink:href="#" xlink:title="MacFrame.macHeader.receiverTransmitter">
<polygon fill="none" stroke="#000000" points="1266.6,-107 1266.6,-128 1369.6,-128 1369.6,-107 1266.6,-107"/>
<text text-anchor="start" x="1269.6" y="-113.8" font-family="Times,serif" font-size="14.00" fill="#000000">receiver:48 (6*8)</text>
<polygon fill="none" stroke="#000000" points="1369.6,-107 1369.6,-128 1488.6,-128 1488.6,-107 1369.6,-107"/>
<text text-anchor="start" x="1372.6" y="-113.8" font-family="Times,serif" font-size="14.00" fill="#000000">transmitter:48 (6*8)</text>
</a>
</g>
</g>
<!-- n5&#45;&gt;n2 -->
<g id="edge4" class="edge">
<title>n5&#45;&gt;n2</title>
<path fill="none" stroke="#000000" d="M1496.8417,-118C1586.5883,-118 1694.2,-118 1694.2,-118 1694.2,-118 1694.2,-82.7813 1694.2,-73.9766"/>
</g>
<!-- n6 -->
<g id="node7" class="node">
<title>n6</title>
<g id="a_node7_5"><a xlink:href="#" xlink:title="MacFrame.macHeader.receiver">
<polygon fill="none" stroke="#000000" points="1543.1,-61 1543.1,-82 1646.1,-82 1646.1,-61 1543.1,-61"/>
<text text-anchor="start" x="1546.1" y="-67.8" font-family="Times,serif" font-size="14.00" fill="#000000">receiver:48 (6*8)</text>
</a>
</g>
</g>
<!-- n6&#45;&gt;n2 -->
<g id="edge5" class="edge">
<title>n6&#45;&gt;n2</title>
<path fill="none" stroke="#000000" d="M1653.8687,-72C1670.9559,-72 1686.3732,-72 1691.554,-72"/>
</g>
<!-- n7&#45;&gt;n5 -->
<g id="edge8" class="edge">
<title>n7&#45;&gt;n5</title>
<path fill="none" stroke="#000000" d="M849.6877,-72C880.2321,-72 1271.2,-72 1271.2,-72 1271.2,-72 1271.2,-89.8196 1271.2,-89.8196"/>
<polygon fill="#000000" stroke="#000000" points="1271.2,-99.8196 1266.7001,-89.8195 1271.2,-94.8196 1271.2001,-89.8196 1271.2001,-89.8196 1271.2001,-89.8196 1271.2,-94.8196 1275.7001,-89.8196 1271.2,-99.8196 1271.2,-99.8196"/>
<text text-anchor="middle" x="1065.3536" y="-60.8" font-family="Times,serif" font-size="14.00" fill="#000000">1</text>
</g>
<!-- n7&#45;&gt;n6 -->
<g id="edge7" class="edge">
<title>n7&#45;&gt;n6</title>
<path fill="none" stroke="#000000" d="M848.2,-73.9088C848.2,-76.7856 848.2,-81.9 848.2,-81.9 848.2,-81.9 1524.3207,-81.9 1524.3207,-81.9"/>
<polygon fill="#000000" stroke="#000000" points="1534.3207,-81.9 1524.3208,-86.4001 1529.3207,-81.9 1524.3207,-81.9001 1524.3207,-81.9001 1524.3207,-81.9001 1529.3207,-81.9 1524.3207,-77.4001 1534.3207,-81.9 1534.3207,-81.9"/>
<text text-anchor="middle" x="1178.2648" y="-70.7" font-family="Times,serif" font-size="14.00" fill="#000000">0</text>
</g>
<!-- n8 -->
<g id="node9" class="node">
<title>n8</title>
<g id="a_node9_6"><a xlink:href="#" xlink:title="MacFrame.macHeader.data">
<polygon fill="none" stroke="#000000" points="894.1,-15 894.1,-36 1001.1,-36 1001.1,-15 894.1,-15"/>
<text text-anchor="start" x="897.1" y="-21.8" font-family="Times,serif" font-size="14.00" fill="#000000">address1:48 (6*8)</text>
<polygon fill="none" stroke="#000000" points="1001.1,-15 1001.1,-36 1108.1,-36 1108.1,-15 1001.1,-15"/>
<text text-anchor="start" x="1004.1" y="-21.8" font-family="Times,serif" font-size="14.00" fill="#000000">address2:48 (6*8)</text>
<polygon fill="none" stroke="#000000" points="1108.1,-15 1108.1,-36 1215.1,-36 1215.1,-15 1108.1,-15"/>
<text text-anchor="start" x="1111.1" y="-21.8" font-family="Times,serif" font-size="14.00" fill="#000000">address3:48 (6*8)</text>
</a>
</g>
</g>
<!-- n7&#45;&gt;n8 -->
<g id="edge9" class="edge">
<title>n7&#45;&gt;n8</title>
<path fill="none" stroke="#000000" d="M848.2,-70.0234C848.2,-61.2188 848.2,-26 848.2,-26 848.2,-26 875.4869,-26 875.4869,-26"/>
<polygon fill="#000000" stroke="#000000" points="885.4869,-26 875.487,-30.5001 880.4869,-26 875.4869,-26.0001 875.4869,-26.0001 875.4869,-26.0001 880.4869,-26 875.4869,-21.5001 885.4869,-26 885.4869,-26"/>
<text text-anchor="middle" x="844.2" y="-23.1683" font-family="Times,serif" font-size="14.00" fill="#000000">2</text>
</g>
<!-- n9 -->
<g id="node10" class="node">
<title>n9</title>
<g id="a_node10_7"><a xlink:href="#" xlink:title="MacFrame.macHeader.data.seqControl">
<polygon fill="none" stroke="#000000" points="1290.6,-11 1290.6,-32 1376.6,-32 1376.6,-11 1290.6,-11"/>
<text text-anchor="start" x="1293.6" y="-17.8" font-family="Times,serif" font-size="14.00" fill="#000000">fragNumber:4</text>
<polygon fill="none" stroke="#000000" points="1376.6,-11 1376.6,-32 1465.6,-32 1465.6,-11 1376.6,-11"/>
<text text-anchor="start" x="1379.6" y="-17.8" font-family="Times,serif" font-size="14.00" fill="#000000">seqNumber:12</text>
</a>
</g>
</g>
<!-- n8&#45;&gt;n9 -->
<g id="edge10" class="edge">
<title>n8&#45;&gt;n9</title>
<path fill="none" stroke="#000000" d="M1222.9561,-24C1222.9561,-24 1271.9104,-24 1271.9104,-24"/>
<polygon fill="#000000" stroke="#000000" points="1281.9104,-24 1271.9104,-28.5001 1276.9104,-24 1271.9104,-24.0001 1271.9104,-24.0001 1271.9104,-24.0001 1276.9104,-24 1271.9104,-19.5001 1281.9104,-24 1281.9104,-24"/>
</g>
<!-- n9&#45;&gt;n4 -->
<g id="edge11" class="edge">
<title>n9&#45;&gt;n4</title>
<path fill="none" stroke="#000000" d="M1473.1903,-20C1473.1903,-20 1522.2998,-20 1522.2998,-20"/>
<polygon fill="#000000" stroke="#000000" points="1532.2998,-20 1522.2998,-24.5001 1527.2998,-20 1522.2998,-20.0001 1522.2998,-20.0001 1522.2998,-20.0001 1527.2998,-20 1522.2997,-15.5001 1532.2998,-20 1532.2998,-20"/>
</g>
</g>
</svg>
