<?xml version="1.0" encoding="UTF-8" standalone="no"?>
<!DOCTYPE svg PUBLIC "-//W3C//DTD SVG 1.1//EN"
 "http://www.w3.org/Graphics/SVG/1.1/DTD/svg11.dtd">
<!-- Generated by graphviz version 2.40.1 (20161225.0304)
 -->
<!-- Title: G Pages: 1 -->
<svg width="241pt" height="67pt"
 viewBox="0.00 0.00 241.20 67.00" xmlns="http://www.w3.org/2000/svg" xmlns:xlink="http://www.w3.org/1999/xlink">
<g id="graph0" class="graph" transform="scale(1 1) rotate(0) translate(4 63)">
<title>G</title>
<polygon fill="#ffffff" stroke="transparent" points="-4,4 -4,-63 237.2,-63 237.2,4 -4,4"/>
<!-- n0 -->
<g id="node1" class="node">
<title>n0</title>
<ellipse fill="#000000" stroke="#000000" cx="1.8" cy="-18" rx="1.8" ry="1.8"/>
</g>
<!-- n1 -->
<g id="node2" class="node">
<title>n1</title>
<g id="a_node2_0"><a xlink:href="#" xlink:title="Foo.value">
<polygon fill="none" stroke="#000000" points="47.6,-30 47.6,-51 95.6,-51 95.6,-30 47.6,-30"/>
<text text-anchor="start" x="50.6" y="-36.8" font-family="Times,serif" font-size="14.00" fill="#000000">value:8</text>
</a>
</g>
</g>
<!-- n0&#45;&gt;n1 -->
<g id="edge1" class="edge">
<title>n0&#45;&gt;n1</title>
<path fill="none" stroke="#000000" d="M2.2,-19.8048C2.2,-25.2268 2.2,-41 2.2,-41 2.2,-41 29.3381,-41 29.3381,-41"/>
<polygon fill="#000000" stroke="#000000" points="39.3381,-41 29.3381,-45.5001 34.3381,-41 29.3381,-41.0001 29.3381,-41.0001 29.3381,-41.0001 34.3381,-41 29.338,-36.5001 39.3381,-41 39.3381,-41"/>
</g>
<!-- n2 -->
<g id="node3" class="node">
<title>n2</title>
<ellipse fill="#000000" stroke="#000000" cx="141.4" cy="-18" rx="1.8" ry="1.8"/>
</g>
<!-- n1&#45;&gt;n2 -->
<g id="edge4" class="edge">
<title>n1&#45;&gt;n2</title>
<path fill="none" stroke="#000000" d="M104.0072,-29.5C122.5667,-29.5 142.2,-29.5 142.2,-29.5 142.2,-29.5 142.2,-23.0313 142.2,-19.7969"/>
</g>
<!-- n2&#45;&gt;n0 -->
<g id="edge2" class="edge">
<title>n2&#45;&gt;n0</title>
<path fill="none" stroke="#000000" d="M139.4266,-18C139.4266,-18 13.9024,-18 13.9024,-18"/>
<polygon fill="#000000" stroke="#000000" points="3.9024,-18 13.9024,-13.5001 8.9024,-18 13.9024,-18.0001 13.9024,-18.0001 13.9024,-18.0001 8.9024,-18 13.9023,-22.5001 3.9024,-18 3.9024,-18"/>
<text text-anchor="middle" x="53.1645" y="-6.8" font-family="Times,serif" font-size="14.00" fill="#000000">!(u8&quot;0&quot;)</text>
</g>
<!-- n3 -->
<g id="node4" class="node">
<title>n3</title>
<g id="a_node4_1"><a xlink:href="#" xlink:title="Foo">
<polygon fill="none" stroke="#000000" points="187.2,-7 187.2,-28 225.2,-28 225.2,-7 187.2,-7"/>
<text text-anchor="start" x="190.2" y="-13.8" font-family="Times,serif" font-size="14.00" fill="#000000">end:8</text>
</a>
</g>
</g>
<!-- n2&#45;&gt;n3 -->
<g id="edge3" class="edge">
<title>n2&#45;&gt;n3</title>
<path fill="none" stroke="#000000" d="M143.2695,-18C143.2695,-18 169.0563,-18 169.0563,-18"/>
<polygon fill="#000000" stroke="#000000" points="179.0563,-18 169.0564,-22.5001 174.0563,-18 169.0563,-18.0001 169.0563,-18.0001 169.0563,-18.0001 174.0563,-18 169.0563,-13.5001 179.0563,-18 179.0563,-18"/>
</g>
</g>
</svg>
