<?xml version="1.0" encoding="UTF-8" standalone="no"?>
<!DOCTYPE svg PUBLIC "-//W3C//DTD SVG 1.1//EN"
 "http://www.w3.org/Graphics/SVG/1.1/DTD/svg11.dtd">
<!-- Generated by graphviz version 2.40.1 (20161225.0304)
 -->
<!-- Title: G Pages: 1 -->
<svg width="4668pt" height="44pt"
 viewBox="0.00 0.00 4668.00 44.00" xmlns="http://www.w3.org/2000/svg" xmlns:xlink="http://www.w3.org/1999/xlink">
<g id="graph0" class="graph" transform="scale(1 1) rotate(0) translate(4 40)">
<title>G</title>
<polygon fill="#ffffff" stroke="transparent" points="-4,4 -4,-40 4664,-40 4664,4 -4,4"/>
<!-- n0 -->
<g id="node1" class="node">
<title>n0</title>
<g id="a_node1_0"><a xlink:href="#" xlink:title="Foo">
<polygon fill="none" stroke="#000000" points="8,-7 8,-28 39,-28 39,-7 8,-7"/>
<text text-anchor="start" x="11" y="-13.8" font-family="Times,serif" font-size="14.00" fill="#000000">f1:B</text>
<polygon fill="none" stroke="#000000" points="39,-7 39,-28 68,-28 68,-7 39,-7"/>
<text text-anchor="start" x="42" y="-13.8" font-family="Times,serif" font-size="14.00" fill="#000000">f2:7</text>
<polygon fill="none" stroke="#000000" points="68,-7 68,-28 111,-28 111,-7 68,-7"/>
<text text-anchor="start" x="71" y="-13.8" font-family="Times,serif" font-size="14.00" fill="#000000">f3:100</text>
<polygon fill="none" stroke="#000000" points="111,-7 111,-28 181,-28 181,-7 111,-7"/>
<text text-anchor="start" x="114" y="-13.8" font-family="Times,serif" font-size="14.00" fill="#000000">f4:32 (4*8)</text>
<polygon fill="none" stroke="#000000" points="181,-7 181,-28 254,-28 254,-7 181,-7"/>
<text text-anchor="start" x="184" y="-13.8" font-family="Times,serif" font-size="14.00" fill="#000000">f4c:8 (= 10)</text>
<polygon fill="none" stroke="#000000" points="254,-7 254,-28 345,-28 345,-7 254,-7"/>
<text text-anchor="start" x="257" y="-13.8" font-family="Times,serif" font-size="14.00" fill="#000000">f4r:8 (&#45;20..&#45;10)</text>
<polygon fill="none" stroke="#000000" points="345,-7 345,-28 477,-28 477,-7 345,-7"/>
<text text-anchor="start" x="348" y="-13.8" font-family="Times,serif" font-size="14.00" fill="#000000">f4rs:16 (2*8; &#45;20..&#45;10)</text>
<polygon fill="none" stroke="#000000" points="477,-7 477,-28 554,-28 554,-7 477,-7"/>
<text text-anchor="start" x="480" y="-13.8" font-family="Times,serif" font-size="14.00" fill="#000000">uf4:32 (4*8)</text>
<polygon fill="none" stroke="#000000" points="554,-7 554,-28 634,-28 634,-7 554,-7"/>
<text text-anchor="start" x="557" y="-13.8" font-family="Times,serif" font-size="14.00" fill="#000000">f4cu:8 (= 11)</text>
<polygon fill="none" stroke="#000000" points="634,-7 634,-28 723,-28 723,-7 634,-7"/>
<text text-anchor="start" x="637" y="-13.8" font-family="Times,serif" font-size="14.00" fill="#000000">f4ru:8 (10..20)</text>
<polygon fill="none" stroke="#000000" points="723,-7 723,-28 852,-28 852,-7 723,-7"/>
<text text-anchor="start" x="726" y="-13.8" font-family="Times,serif" font-size="14.00" fill="#000000">f4rus:16 (2*8; 10..20)</text>
<polygon fill="none" stroke="#000000" points="852,-7 852,-28 929,-28 929,-7 852,-7"/>
<text text-anchor="start" x="855" y="-13.8" font-family="Times,serif" font-size="14.00" fill="#000000">f5:80 (5*16)</text>
<polygon fill="none" stroke="#000000" points="929,-7 929,-28 1009,-28 1009,-7 929,-7"/>
<text text-anchor="start" x="932" y="-13.8" font-family="Times,serif" font-size="14.00" fill="#000000">f5c:16 (= 12)</text>
<polygon fill="none" stroke="#000000" points="1009,-7 1009,-28 1121,-28 1121,-7 1009,-7"/>
<text text-anchor="start" x="1012" y="-13.8" font-family="Times,serif" font-size="14.00" fill="#000000">f5r:16 (&#45;200..&#45;100)</text>
<polygon fill="none" stroke="#000000" points="1121,-7 1121,-28 1274,-28 1274,-7 1121,-7"/>
<text text-anchor="start" x="1124" y="-13.8" font-family="Times,serif" font-size="14.00" fill="#000000">f5rs:32 (2*16; &#45;200..&#45;100)</text>
<polygon fill="none" stroke="#000000" points="1274,-7 1274,-28 1358,-28 1358,-7 1274,-7"/>
<text text-anchor="start" x="1277" y="-13.8" font-family="Times,serif" font-size="14.00" fill="#000000">uf5:80 (5*16)</text>
<polygon fill="none" stroke="#000000" points="1358,-7 1358,-28 1445,-28 1445,-7 1358,-7"/>
<text text-anchor="start" x="1361" y="-13.8" font-family="Times,serif" font-size="14.00" fill="#000000">f5cu:16 (= 13)</text>
<polygon fill="none" stroke="#000000" points="1445,-7 1445,-28 1555,-28 1555,-7 1445,-7"/>
<text text-anchor="start" x="1448" y="-13.8" font-family="Times,serif" font-size="14.00" fill="#000000">f5ru:16 (100..200)</text>
<polygon fill="none" stroke="#000000" points="1555,-7 1555,-28 1705,-28 1705,-7 1555,-7"/>
<text text-anchor="start" x="1558" y="-13.8" font-family="Times,serif" font-size="14.00" fill="#000000">f5rus:32 (2*16; 100..200)</text>
<polygon fill="none" stroke="#000000" points="1705,-7 1705,-28 1789,-28 1789,-7 1705,-7"/>
<text text-anchor="start" x="1708" y="-13.8" font-family="Times,serif" font-size="14.00" fill="#000000">f6:192 (6*32)</text>
<polygon fill="none" stroke="#000000" points="1789,-7 1789,-28 1869,-28 1869,-7 1789,-7"/>
<text text-anchor="start" x="1792" y="-13.8" font-family="Times,serif" font-size="14.00" fill="#000000">f6c:32 (= 14)</text>
<polygon fill="none" stroke="#000000" points="1869,-7 1869,-28 1995,-28 1995,-7 1869,-7"/>
<text text-anchor="start" x="1872" y="-13.8" font-family="Times,serif" font-size="14.00" fill="#000000">f6r:32 (&#45;2000..&#45;1000)</text>
<polygon fill="none" stroke="#000000" points="1995,-7 1995,-28 2162,-28 2162,-7 1995,-7"/>
<text text-anchor="start" x="1998" y="-13.8" font-family="Times,serif" font-size="14.00" fill="#000000">f6rs:64 (2*32; &#45;2000..&#45;1000)</text>
<polygon fill="none" stroke="#000000" points="2162,-7 2162,-28 2253,-28 2253,-7 2162,-7"/>
<text text-anchor="start" x="2165" y="-13.8" font-family="Times,serif" font-size="14.00" fill="#000000">uf6:192 (6*32)</text>
<polygon fill="none" stroke="#000000" points="2253,-7 2253,-28 2340,-28 2340,-7 2253,-7"/>
<text text-anchor="start" x="2256" y="-13.8" font-family="Times,serif" font-size="14.00" fill="#000000">f6cu:32 (= 15)</text>
<polygon fill="none" stroke="#000000" points="2340,-7 2340,-28 2464,-28 2464,-7 2340,-7"/>
<text text-anchor="start" x="2343" y="-13.8" font-family="Times,serif" font-size="14.00" fill="#000000">f6ru:32 (1000..2000)</text>
<polygon fill="none" stroke="#000000" points="2464,-7 2464,-28 2628,-28 2628,-7 2464,-7"/>
<text text-anchor="start" x="2467" y="-13.8" font-family="Times,serif" font-size="14.00" fill="#000000">f6rus:64 (2*32; 1000..2000)</text>
<polygon fill="none" stroke="#000000" points="2628,-7 2628,-28 2712,-28 2712,-7 2628,-7"/>
<text text-anchor="start" x="2631" y="-13.8" font-family="Times,serif" font-size="14.00" fill="#000000">f7:448 (7*64)</text>
<polygon fill="none" stroke="#000000" points="2712,-7 2712,-28 2792,-28 2792,-7 2712,-7"/>
<text text-anchor="start" x="2715" y="-13.8" font-family="Times,serif" font-size="14.00" fill="#000000">f7c:64 (= 16)</text>
<polygon fill="none" stroke="#000000" points="2792,-7 2792,-28 2932,-28 2932,-7 2792,-7"/>
<text text-anchor="start" x="2795" y="-13.8" font-family="Times,serif" font-size="14.00" fill="#000000">f7r:64 (&#45;20000..&#45;10000)</text>
<polygon fill="none" stroke="#000000" points="2932,-7 2932,-28 3120,-28 3120,-7 2932,-7"/>
<text text-anchor="start" x="2935" y="-13.8" font-family="Times,serif" font-size="14.00" fill="#000000">f7rs:128 (2*64; &#45;20000..&#45;10000)</text>
<polygon fill="none" stroke="#000000" points="3120,-7 3120,-28 3211,-28 3211,-7 3120,-7"/>
<text text-anchor="start" x="3123" y="-13.8" font-family="Times,serif" font-size="14.00" fill="#000000">uf7:448 (7*64)</text>
<polygon fill="none" stroke="#000000" points="3211,-7 3211,-28 3298,-28 3298,-7 3211,-7"/>
<text text-anchor="start" x="3214" y="-13.8" font-family="Times,serif" font-size="14.00" fill="#000000">f7cu:64 (= 17)</text>
<polygon fill="none" stroke="#000000" points="3298,-7 3298,-28 3436,-28 3436,-7 3298,-7"/>
<text text-anchor="start" x="3301" y="-13.8" font-family="Times,serif" font-size="14.00" fill="#000000">f7ru:64 (10000..20000)</text>
<polygon fill="none" stroke="#000000" points="3436,-7 3436,-28 3621,-28 3621,-7 3436,-7"/>
<text text-anchor="start" x="3439" y="-13.8" font-family="Times,serif" font-size="14.00" fill="#000000">f7rus:128 (2*64; 10000..20000)</text>
<polygon fill="none" stroke="#000000" points="3621,-7 3621,-28 3698,-28 3698,-7 3621,-7"/>
<text text-anchor="start" x="3624" y="-13.8" font-family="Times,serif" font-size="14.00" fill="#000000">f8:32 (1*32)</text>
<polygon fill="none" stroke="#000000" points="3698,-7 3698,-28 3826,-28 3826,-7 3698,-7"/>
<text text-anchor="start" x="3701" y="-13.8" font-family="Times,serif" font-size="14.00" fill="#000000">f8r:32 (&#45;100.0..100.0)</text>
<polygon fill="none" stroke="#000000" points="3826,-7 3826,-28 3903,-28 3903,-7 3826,-7"/>
<text text-anchor="start" x="3829" y="-13.8" font-family="Times,serif" font-size="14.00" fill="#000000">f9:64 (2*32)</text>
<polygon fill="none" stroke="#000000" points="3903,-7 3903,-28 4072,-28 4072,-7 3903,-7"/>
<text text-anchor="start" x="3906" y="-13.8" font-family="Times,serif" font-size="14.00" fill="#000000">f9rs:64 (2*32; &#45;100.0..100.0)</text>
<polygon fill="none" stroke="#000000" points="4072,-7 4072,-28 4156,-28 4156,-7 4072,-7"/>
<text text-anchor="start" x="4075" y="-13.8" font-family="Times,serif" font-size="14.00" fill="#000000">f10:64 (1*64)</text>
<polygon fill="none" stroke="#000000" points="4156,-7 4156,-28 4305,-28 4305,-7 4156,-7"/>
<text text-anchor="start" x="4159" y="-13.8" font-family="Times,serif" font-size="14.00" fill="#000000">f10r:64 (&#45;1000.0..1000.0)</text>
<polygon fill="none" stroke="#000000" points="4305,-7 4305,-28 4396,-28 4396,-7 4305,-7"/>
<text text-anchor="start" x="4308" y="-13.8" font-family="Times,serif" font-size="14.00" fill="#000000">f11:192 (3*64)</text>
<polygon fill="none" stroke="#000000" points="4396,-7 4396,-28 4593,-28 4593,-7 4396,-7"/>
<text text-anchor="start" x="4399" y="-13.8" font-family="Times,serif" font-size="14.00" fill="#000000">f10rs:128 (2*64; &#45;1000.0..1000.0)</text>
<polygon fill="none" stroke="#000000" points="4593,-7 4593,-28 4652,-28 4652,-7 4593,-7"/>
<text text-anchor="start" x="4596" y="-13.8" font-family="Times,serif" font-size="14.00" fill="#000000">(pads):11</text>
</a>
</g>
</g>
</g>
</svg>
