<?xml version="1.0" encoding="UTF-8" standalone="no"?>
<!DOCTYPE svg PUBLIC "-//W3C//DTD SVG 1.1//EN"
 "http://www.w3.org/Graphics/SVG/1.1/DTD/svg11.dtd">
<!-- Generated by graphviz version 2.40.1 (20161225.0304)
 -->
<!-- Title: G Pages: 1 -->
<svg width="232pt" height="51pt"
 viewBox="0.00 0.00 231.56 50.80" xmlns="http://www.w3.org/2000/svg" xmlns:xlink="http://www.w3.org/1999/xlink">
<g id="graph0" class="graph" transform="scale(1 1) rotate(0) translate(4 46.8)">
<title>G</title>
<polygon fill="#ffffff" stroke="transparent" points="-4,4 -4,-46.8 227.5645,-46.8 227.5645,4 -4,4"/>
<!-- n0 -->
<g id="node1" class="node">
<title>n0</title>
<ellipse fill="#000000" stroke="#000000" cx="1.8" cy="-1.8" rx="1.8" ry="1.8"/>
</g>
<!-- n1 -->
<g id="node2" class="node">
<title>n1</title>
<g id="a_node2_0"><a xlink:href="#" xlink:title="Foo.value">
<polygon fill="none" stroke="#000000" points="47.6,-13.8 47.6,-34.8 91.6,-34.8 91.6,-13.8 47.6,-13.8"/>
<text text-anchor="start" x="50.6" y="-20.6" font-family="Times,serif" font-size="14.00" fill="#000000">cont:B</text>
<polygon fill="none" stroke="#000000" points="91.6,-13.8 91.6,-34.8 139.6,-34.8 139.6,-13.8 91.6,-13.8"/>
<text text-anchor="start" x="94.6" y="-20.6" font-family="Times,serif" font-size="14.00" fill="#000000">value:7</text>
</a>
</g>
</g>
<!-- n0&#45;&gt;n1 -->
<g id="edge1" class="edge">
<title>n0&#45;&gt;n1</title>
<path fill="none" stroke="#000000" d="M2.2,-3.6048C2.2,-9.0268 2.2,-24.8 2.2,-24.8 2.2,-24.8 29.3759,-24.8 29.3759,-24.8"/>
<polygon fill="#000000" stroke="#000000" points="39.3759,-24.8 29.3759,-29.3001 34.3759,-24.8 29.3759,-24.8001 29.3759,-24.8001 29.3759,-24.8001 34.3759,-24.8 29.3758,-20.3001 39.3759,-24.8 39.3759,-24.8"/>
</g>
<!-- n2 -->
<g id="node3" class="node">
<title>n2</title>
<ellipse fill="#000000" stroke="#000000" cx="185.4" cy="-1.8" rx="1.8" ry="1.8"/>
</g>
<!-- n1&#45;&gt;n2 -->
<g id="edge3" class="edge">
<title>n1&#45;&gt;n2</title>
<path fill="none" stroke="#000000" d="M147.7337,-24.8C167.9978,-24.8 186.2,-24.8 186.2,-24.8 186.2,-24.8 186.2,-9.0268 186.2,-3.6048"/>
<text text-anchor="middle" x="200.5645" y="-13.6" font-family="Times,serif" font-size="14.00" fill="#000000">max: 10</text>
</g>
<!-- n2&#45;&gt;n0 -->
<g id="edge2" class="edge">
<title>n2&#45;&gt;n0</title>
<path fill="none" stroke="#000000" d="M183.3381,-1.8C183.3381,-1.8 13.6172,-1.8 13.6172,-1.8"/>
<polygon fill="#000000" stroke="#000000" points="3.6172,-1.8 13.6172,2.6999 8.6172,-1.8 13.6172,-1.8001 13.6172,-1.8001 13.6172,-1.8001 8.6172,-1.8 13.6171,-6.3001 3.6172,-1.8 3.6172,-1.8"/>
</g>
</g>
</svg>
