<?xml version="1.0" encoding="UTF-8" standalone="no"?>
<!DOCTYPE svg PUBLIC "-//W3C//DTD SVG 1.1//EN"
 "http://www.w3.org/Graphics/SVG/1.1/DTD/svg11.dtd">
<!-- Generated by graphviz version 2.40.1 (20161225.0304)
 -->
<!-- Title: G Pages: 1 -->
<svg width="337pt" height="67pt"
 viewBox="0.00 0.00 336.54 67.00" xmlns="http://www.w3.org/2000/svg" xmlns:xlink="http://www.w3.org/1999/xlink">
<g id="graph0" class="graph" transform="scale(1 1) rotate(0) translate(4 63)">
<title>G</title>
<polygon fill="#ffffff" stroke="transparent" points="-4,4 -4,-63 332.5436,-63 332.5436,4 -4,4"/>
<!-- n0 -->
<g id="node1" class="node">
<title>n0</title>
<g id="a_node1_0"><a xlink:href="#" xlink:title="Foo">
<polygon fill="none" stroke="#000000" points="8.5,-7 8.5,-28 47.5,-28 47.5,-7 8.5,-7"/>
<text text-anchor="start" x="11.5" y="-13.8" font-family="Times,serif" font-size="14.00" fill="#000000">size:8</text>
</a>
</g>
</g>
<!-- n1 -->
<g id="node2" class="node">
<title>n1</title>
<ellipse fill="#000000" stroke="#000000" cx="92.8" cy="-18" rx="1.8" ry="1.8"/>
</g>
<!-- n0&#45;&gt;n1 -->
<g id="edge1" class="edge">
<title>n0&#45;&gt;n1</title>
<path fill="none" stroke="#000000" d="M55.1931,-18C69.6536,-18 85.4422,-18 90.8546,-18"/>
</g>
<!-- n2 -->
<g id="node3" class="node">
<title>n2</title>
<g id="a_node3_1"><a xlink:href="#" xlink:title="Foo.sixBytes">
<polygon fill="none" stroke="#000000" points="138.6,-30 138.6,-51 244.6,-51 244.6,-30 138.6,-30"/>
<text text-anchor="start" x="141.6" y="-36.8" font-family="Times,serif" font-size="14.00" fill="#000000">sixBytes:48 (6*8)</text>
</a>
</g>
</g>
<!-- n1&#45;&gt;n2 -->
<g id="edge3" class="edge">
<title>n1&#45;&gt;n2</title>
<path fill="none" stroke="#000000" d="M93.2,-19.7969C93.2,-23.0313 93.2,-29.5 93.2,-29.5 93.2,-29.5 120.4008,-29.5 120.4008,-29.5"/>
<polygon fill="#000000" stroke="#000000" points="130.4008,-29.5 120.4009,-34.0001 125.4008,-29.5 120.4008,-29.5001 120.4008,-29.5001 120.4008,-29.5001 125.4008,-29.5 120.4008,-25.0001 130.4008,-29.5 130.4008,-29.5"/>
</g>
<!-- n3 -->
<g id="node4" class="node">
<title>n3</title>
<ellipse fill="#000000" stroke="#000000" cx="290.4" cy="-18" rx="1.8" ry="1.8"/>
</g>
<!-- n2&#45;&gt;n3 -->
<g id="edge4" class="edge">
<title>n2&#45;&gt;n3</title>
<path fill="none" stroke="#000000" d="M252.692,-41C273.3088,-41 291.2,-41 291.2,-41 291.2,-41 291.2,-25.2268 291.2,-19.8048"/>
<text text-anchor="middle" x="305.5436" y="-29.8" font-family="Times,serif" font-size="14.00" fill="#000000">max: 10</text>
</g>
<!-- n3&#45;&gt;n1 -->
<g id="edge2" class="edge">
<title>n3&#45;&gt;n1</title>
<path fill="none" stroke="#000000" d="M288.1809,-18C288.1809,-18 104.7557,-18 104.7557,-18"/>
<polygon fill="#000000" stroke="#000000" points="94.7557,-18 104.7558,-13.5001 99.7557,-18 104.7557,-18.0001 104.7557,-18.0001 104.7557,-18.0001 99.7557,-18 104.7557,-22.5001 94.7557,-18 94.7557,-18"/>
</g>
</g>
</svg>
