<?xml version="1.0" encoding="UTF-8" standalone="no"?>
<!DOCTYPE svg PUBLIC "-//W3C//DTD SVG 1.1//EN"
 "http://www.w3.org/Graphics/SVG/1.1/DTD/svg11.dtd">
<!-- Generated by graphviz version 2.40.1 (20161225.0304)
 -->
<!-- Title: G Pages: 1 -->
<svg width="287pt" height="67pt"
 viewBox="0.00 0.00 287.20 67.00" xmlns="http://www.w3.org/2000/svg" xmlns:xlink="http://www.w3.org/1999/xlink">
<g id="graph0" class="graph" transform="scale(1 1) rotate(0) translate(4 63)">
<title>G</title>
<polygon fill="#ffffff" stroke="transparent" points="-4,4 -4,-63 283.2,-63 283.2,4 -4,4"/>
<!-- n0 -->
<g id="node1" class="node">
<title>n0</title>
<ellipse fill="#000000" stroke="#000000" cx="1.8" cy="-18" rx="1.8" ry="1.8"/>
</g>
<!-- n1 -->
<g id="node2" class="node">
<title>n1</title>
<g id="a_node2_0"><a xlink:href="#" xlink:title="Foo.value">
<polygon fill="none" stroke="#000000" points="47.6,-30 47.6,-51 91.6,-51 91.6,-30 47.6,-30"/>
<text text-anchor="start" x="50.6" y="-36.8" font-family="Times,serif" font-size="14.00" fill="#000000">cont:B</text>
<polygon fill="none" stroke="#000000" points="91.6,-30 91.6,-51 139.6,-51 139.6,-30 91.6,-30"/>
<text text-anchor="start" x="94.6" y="-36.8" font-family="Times,serif" font-size="14.00" fill="#000000">value:7</text>
</a>
</g>
</g>
<!-- n0&#45;&gt;n1 -->
<g id="edge1" class="edge">
<title>n0&#45;&gt;n1</title>
<path fill="none" stroke="#000000" d="M2.2,-19.8048C2.2,-25.2268 2.2,-41 2.2,-41 2.2,-41 29.3759,-41 29.3759,-41"/>
<polygon fill="#000000" stroke="#000000" points="39.3759,-41 29.3759,-45.5001 34.3759,-41 29.3759,-41.0001 29.3759,-41.0001 29.3759,-41.0001 34.3759,-41 29.3758,-36.5001 39.3759,-41 39.3759,-41"/>
</g>
<!-- n2 -->
<g id="node3" class="node">
<title>n2</title>
<ellipse fill="#000000" stroke="#000000" cx="185.4" cy="-18" rx="1.8" ry="1.8"/>
</g>
<!-- n1&#45;&gt;n2 -->
<g id="edge4" class="edge">
<title>n1&#45;&gt;n2</title>
<path fill="none" stroke="#000000" d="M147.7337,-29.5C167.9978,-29.5 186.2,-29.5 186.2,-29.5 186.2,-29.5 186.2,-23.0313 186.2,-19.7969"/>
<text text-anchor="middle" x="194.8184" y="-33.3" font-family="Times,serif" font-size="14.00" fill="#000000">max: 10</text>
</g>
<!-- n2&#45;&gt;n0 -->
<g id="edge2" class="edge">
<title>n2&#45;&gt;n0</title>
<path fill="none" stroke="#000000" d="M183.3381,-18C183.3381,-18 13.6172,-18 13.6172,-18"/>
<polygon fill="#000000" stroke="#000000" points="3.6172,-18 13.6172,-13.5001 8.6172,-18 13.6172,-18.0001 13.6172,-18.0001 13.6172,-18.0001 8.6172,-18 13.6171,-22.5001 3.6172,-18 3.6172,-18"/>
<text text-anchor="middle" x="93.9776" y="-6.8" font-family="Times,serif" font-size="14.00" fill="#000000">T</text>
</g>
<!-- n3 -->
<g id="node4" class="node">
<title>n3</title>
<g id="a_node4_1"><a xlink:href="#" xlink:title="Foo">
<polygon fill="none" stroke="#000000" points="231.2,-7 231.2,-28 271.2,-28 271.2,-7 231.2,-7"/>
<text text-anchor="start" x="234.2" y="-13.8" font-family="Times,serif" font-size="14.00" fill="#000000">end:B</text>
</a>
</g>
</g>
<!-- n2&#45;&gt;n3 -->
<g id="edge3" class="edge">
<title>n2&#45;&gt;n3</title>
<path fill="none" stroke="#000000" d="M187.2983,-18C187.2983,-18 212.9518,-18 212.9518,-18"/>
<polygon fill="#000000" stroke="#000000" points="222.9518,-18 212.9519,-22.5001 217.9518,-18 212.9518,-18.0001 212.9518,-18.0001 212.9518,-18.0001 217.9518,-18 212.9518,-13.5001 222.9518,-18 222.9518,-18"/>
</g>
</g>
</svg>
