<?xml version="1.0" encoding="UTF-8" standalone="no"?>
<!DOCTYPE svg PUBLIC "-//W3C//DTD SVG 1.1//EN"
 "http://www.w3.org/Graphics/SVG/1.1/DTD/svg11.dtd">
<!-- Generated by graphviz version 2.40.1 (20161225.0304)
 -->
<!-- Title: G Pages: 1 -->
<svg width="264pt" height="98pt"
 viewBox="0.00 0.00 264.20 98.00" xmlns="http://www.w3.org/2000/svg" xmlns:xlink="http://www.w3.org/1999/xlink">
<g id="graph0" class="graph" transform="scale(1 1) rotate(0) translate(4 94)">
<title>G</title>
<polygon fill="#ffffff" stroke="transparent" points="-4,4 -4,-94 260.2,-94 260.2,4 -4,4"/>
<!-- n0 -->
<g id="node1" class="node">
<title>n0</title>
<g id="a_node1_0"><a xlink:href="#" xlink:title="Foo">
<polygon fill="none" stroke="#000000" points="8.5,-34 8.5,-55 49.5,-55 49.5,-34 8.5,-34"/>
<text text-anchor="start" x="11.5" y="-40.8" font-family="Times,serif" font-size="14.00" fill="#000000">flag:B</text>
</a>
</g>
</g>
<!-- n1 -->
<g id="node2" class="node">
<title>n1</title>
<ellipse fill="#000000" stroke="#000000" cx="94.8" cy="-45" rx="1.8" ry="1.8"/>
</g>
<!-- n0&#45;&gt;n1 -->
<g id="edge1" class="edge">
<title>n0&#45;&gt;n1</title>
<g id="a_edge1"><a xlink:href="#" xlink:title="p =&gt; if (p) 1 else 0">
<path fill="none" stroke="#000000" d="M57.0019,-45C71.6022,-45 87.4297,-45 92.8517,-45"/>
</a>
</g>
<g id="a_edge1&#45;label"><a xlink:href="#">
<text text-anchor="middle" x="85.9268" y="-48.8" font-family="Times,serif" font-size="14.00" fill="#000000">flag</text>
</a>
</g>
</g>
<!-- n2 -->
<g id="node3" class="node">
<title>n2</title>
<g id="a_node3_1"><a xlink:href="#" xlink:title="Foo.baz">
<polygon fill="none" stroke="#000000" points="140.6,-61 140.6,-82 174.6,-82 174.6,-61 140.6,-61"/>
<text text-anchor="start" x="143.6" y="-67.8" font-family="Times,serif" font-size="14.00" fill="#000000">b1:B</text>
<polygon fill="none" stroke="#000000" points="174.6,-61 174.6,-82 208.6,-82 208.6,-61 174.6,-61"/>
<text text-anchor="start" x="177.6" y="-67.8" font-family="Times,serif" font-size="14.00" fill="#000000">b2:B</text>
</a>
</g>
</g>
<!-- n1&#45;&gt;n2 -->
<g id="edge2" class="edge">
<title>n1&#45;&gt;n2</title>
<path fill="none" stroke="#000000" d="M95.2,-47.1094C95.2,-50.9063 95.2,-58.5 95.2,-58.5 95.2,-58.5 122.575,-58.5 122.575,-58.5"/>
<polygon fill="#000000" stroke="#000000" points="132.575,-58.5 122.5751,-63.0001 127.575,-58.5 122.575,-58.5001 122.575,-58.5001 122.575,-58.5001 127.575,-58.5 122.575,-54.0001 132.575,-58.5 132.575,-58.5"/>
<text text-anchor="middle" x="107.1922" y="-47.3" font-family="Times,serif" font-size="14.00" fill="#000000">0</text>
</g>
<!-- n3 -->
<g id="node4" class="node">
<title>n3</title>
<g id="a_node4_2"><a xlink:href="#" xlink:title="Foo.bazz">
<polygon fill="none" stroke="#000000" points="153.6,-7 153.6,-28 196.6,-28 196.6,-7 153.6,-7"/>
<text text-anchor="start" x="156.6" y="-13.8" font-family="Times,serif" font-size="14.00" fill="#000000">bazz:4</text>
</a>
</g>
</g>
<!-- n1&#45;&gt;n3 -->
<g id="edge3" class="edge">
<title>n1&#45;&gt;n3</title>
<path fill="none" stroke="#000000" d="M95.2,-42.8906C95.2,-39.0938 95.2,-31.5 95.2,-31.5 95.2,-31.5 135.0344,-31.5 135.0344,-31.5"/>
<polygon fill="#000000" stroke="#000000" points="145.0344,-31.5 135.0344,-36.0001 140.0344,-31.5 135.0344,-31.5001 135.0344,-31.5001 135.0344,-31.5001 140.0344,-31.5 135.0343,-27.0001 145.0344,-31.5 145.0344,-31.5"/>
<text text-anchor="middle" x="105.4219" y="-20.3" font-family="Times,serif" font-size="14.00" fill="#000000">1</text>
</g>
<!-- n4 -->
<g id="node5" class="node">
<title>n4</title>
<ellipse fill="#000000" stroke="#000000" cx="254.4" cy="-45" rx="1.8" ry="1.8"/>
</g>
<!-- n2&#45;&gt;n4 -->
<g id="edge4" class="edge">
<title>n2&#45;&gt;n4</title>
<path fill="none" stroke="#000000" d="M211.2,-53.8408C211.2,-48.9567 211.2,-45 211.2,-45 211.2,-45 244.275,-45 252.5438,-45"/>
</g>
<!-- n3&#45;&gt;n4 -->
<g id="edge5" class="edge">
<title>n3&#45;&gt;n4</title>
<path fill="none" stroke="#000000" d="M204.1548,-18C227.158,-18 255.2,-18 255.2,-18 255.2,-18 255.2,-37.2217 255.2,-43.2285"/>
</g>
</g>
</svg>
